<svg width="70" height="65" viewBox="0 0 70 65" fill="none" xmlns="http://www.w3.org/2000/svg">
<g opacity="0.6">
<path d="M34.9997 56.4007C34.6158 56.4027 34.2353 56.3359 33.8799 56.2041C33.5246 56.0723 33.2014 55.8781 32.9288 55.6327L10.2663 35.0302C7.42364 32.4223 5.8291 28.9013 5.8291 25.2322C5.8291 21.563 7.42364 18.042 10.2663 15.4341C13.1313 12.8402 17.0121 11.3837 21.058 11.3837C25.1039 11.3837 28.9847 12.8402 31.8497 15.4341L34.9997 18.294L38.1497 15.4341C41.0146 12.8402 44.8954 11.3837 48.9413 11.3837C52.9872 11.3837 56.8681 12.8402 59.733 15.4341C62.5757 18.042 64.1702 21.563 64.1702 25.2322C64.1702 28.9013 62.5757 32.4223 59.733 35.0302L37.0705 55.6327C36.798 55.8781 36.4748 56.0723 36.1194 56.2041C35.764 56.3359 35.3835 56.4027 34.9997 56.4007ZM21.058 16.6787C19.8233 16.6736 18.5998 16.891 17.4583 17.3183C16.3168 17.7456 15.28 18.3743 14.408 19.1679C12.6465 20.7757 11.6577 22.9512 11.6577 25.2189C11.6577 27.4866 12.6465 29.6622 14.408 31.2699L34.9997 49.9922L55.5913 31.2699C57.3528 29.6622 58.3416 27.4866 58.3416 25.2189C58.3416 22.9512 57.3528 20.7757 55.5913 19.1679C53.7937 17.6259 51.4144 16.7669 48.9413 16.7669C46.4683 16.7669 44.089 17.6259 42.2913 19.1679L37.0705 23.9346C36.7994 24.1828 36.4768 24.3798 36.1214 24.5142C35.7659 24.6487 35.3847 24.7179 34.9997 24.7179C34.6146 24.7179 34.2334 24.6487 33.878 24.5142C33.5226 24.3798 33.2 24.1828 32.9288 23.9346L27.708 19.1679C26.836 18.3743 25.7992 17.7456 24.6577 17.3183C23.5162 16.891 22.2927 16.6736 21.058 16.6787Z" fill="#231F20"/>
</g>
</svg>
