<svg width="171" height="136" viewBox="0 0 171 136" fill="none" xmlns="http://www.w3.org/2000/svg">
<path fill-rule="evenodd" clip-rule="evenodd" d="M110.713 26.4146C110.029 26.6402 109.379 26.7971 108.777 27.062C96.6294 32.3958 84.4793 37.7222 72.3624 43.1247C71.3369 43.5809 69.1049 43.934 69.7069 45.0351C70.4875 46.4648 72.6022 47.1416 74.5358 46.9822C75.3368 46.916 76.1123 46.4501 76.875 46.1166C88.8669 40.8514 100.859 35.5838 112.841 30.299C113.657 29.9385 114.981 29.8037 115.029 28.8963C115.09 27.7731 113.639 27.7045 112.818 27.2361C112.18 26.8731 111.435 26.6892 110.713 26.4146Z" fill="#FFDE59"/>
<path fill-rule="evenodd" clip-rule="evenodd" d="M46.8226 34.6028C47.6873 34.2693 48.6312 33.9456 49.5419 33.5459C61.7863 28.1802 74.0257 22.8022 86.2651 17.4243C86.8671 17.1594 87.714 17.0074 87.7421 16.2692C87.7701 15.5286 86.9232 15.3398 86.3543 15.0308C84.4922 14.0253 82.7524 13.8978 80.6607 14.842C69.0055 20.0875 57.2737 25.1712 45.5777 30.3309C44.4094 30.8483 42.2462 31.0911 42.5268 32.3222C42.8865 33.9186 45.1262 34.0241 46.8226 34.6028Z" fill="#FFDE59"/>
<path fill-rule="evenodd" clip-rule="evenodd" d="M69.4466 37.1926C70.194 36.9203 70.9108 36.7045 71.5894 36.4078C80.9054 32.3051 90.2188 28.1925 99.5246 24.0726C100.336 23.7121 101.591 23.587 101.614 22.5791C101.634 21.7036 100.374 21.6718 99.7185 21.2181C98.1573 20.1366 96.6344 20.3867 94.9891 21.1151C85.4562 25.3404 75.9004 29.5192 66.3472 33.7078C65.8141 33.9432 65.0921 34.0756 65.0437 34.7083C64.9825 35.5152 65.8268 35.6795 66.4033 35.9443C67.3803 36.398 68.3982 36.7683 69.4466 37.1926Z" fill="#FFDE59"/>
<path fill-rule="evenodd" clip-rule="evenodd" d="M125.689 36.8222C127.531 36.0007 129.414 35.2674 131.238 34.4116C131.398 34.3356 131.587 34.2767 131.753 34.2105C133.029 33.7078 133.893 32.7881 133.722 31.3682C133.669 30.9195 133.495 30.5001 133.21 30.1421C132.61 29.3917 132.013 29.3009 131.233 28.938C125.774 26.4121 120.31 23.9009 114.851 21.375C103.708 16.2178 92.5529 11.0875 81.4436 5.86648C79.1222 4.77519 77.0203 4.7384 74.6964 5.85421C58.6612 13.5521 42.5878 21.1764 26.5348 28.8374C26.3715 28.9159 26.1777 28.9797 26.0068 29.0459C24.8435 29.4996 23.9048 30.2304 23.8793 31.5522C23.8665 32.1652 24.0604 32.7489 24.4583 33.2271C24.9048 33.7617 25.4889 34.0486 26.142 34.2743C26.3282 34.338 26.5399 34.3969 26.7159 34.4753C34.208 37.8179 41.6746 41.2119 49.2432 44.3852C51.2151 45.2116 52.1487 46.0307 51.9064 48.1839C51.6742 50.2732 51.8809 52.3332 51.8655 54.4201C51.8553 55.634 52.1334 56.946 53.3247 57.5984C54.5134 58.2482 55.8348 57.8191 56.9317 57.2231C59.6331 55.7517 62.3677 54.3343 65.0896 52.8923C65.6814 52.5809 66.0181 52.3209 66.6482 52.3185C67.6431 52.7182 68.643 53.1057 69.6251 53.5397C71.7347 54.4716 73.8648 55.3765 75.9183 56.4188C77.8799 57.4144 79.7651 57.3899 81.7574 56.4948C96.3895 49.9128 111.039 43.3699 125.689 36.8222ZM140.426 37.195V79.9415C140.207 80.2186 139.954 80.4859 139.666 80.7434C139.163 81.2388 138.766 83.3576 138.676 84.0443C138.582 84.7603 138.421 86.9307 138.758 87.5707C138.763 87.5805 138.773 87.5977 138.781 87.61C138.865 87.6467 139.09 87.659 139.169 87.6615C140.837 87.6982 142.505 87.6982 144.174 87.6933C144.222 87.6933 144.306 87.6909 144.383 87.6811C144.39 87.6001 144.385 87.507 144.383 87.4555C144.283 85.7315 144.579 83.7206 144.214 82.0628C144.028 81.2216 143.671 80.5448 143.074 79.9489V34.8922C143.697 34.2203 144.543 33.6931 145.64 33.3252C146.459 33.053 147.326 32.793 147.362 31.8464C147.372 31.5644 147.339 31.3266 147.143 31.1107C146.826 30.765 146.153 30.4633 145.725 30.2647C145.63 30.2206 145.536 30.1764 145.439 30.1323C124.44 20.3941 103.44 10.6559 82.4257 0.949556C78.8595 -0.698409 75.4999 -0.0264708 72.0893 1.62885C57.3603 8.77984 42.5674 15.8082 27.7975 22.8807C22.7492 25.2987 17.7035 27.7241 12.6399 30.1151C12.1552 30.3432 11.3057 30.7012 10.9461 31.0862C10.7394 31.3094 10.7012 31.5644 10.7037 31.8563C10.7063 32.1652 10.7624 32.4154 10.9843 32.641C11.3211 32.9794 11.9664 33.259 12.4001 33.4552C12.4996 33.4993 12.5965 33.5435 12.6935 33.5851C20.0044 36.8713 27.2975 40.1942 34.6748 43.343C37.3686 44.4931 38.616 46.2465 38.5803 49.1059C38.4859 56.6297 38.5242 64.1583 38.5701 71.6845C38.5778 73.1437 38.7614 74.6077 38.968 76.0546C39.1747 77.4941 40.0139 78.3892 41.3761 78.9606C52.942 83.826 64.5105 88.6841 76.0739 93.5544C77.9769 94.3563 79.8493 94.4029 81.7293 93.5274C93.0911 88.2402 104.443 82.9285 115.774 77.5799C117.782 76.6333 118.639 75.1153 118.634 72.9843C118.623 65.1319 118.715 57.2771 118.618 49.4247C118.583 46.5849 119.817 44.7457 122.519 43.6103C127.215 41.6337 131.827 39.4756 136.5 37.4451C137.687 36.9277 139.12 36.3857 140.339 37.1386C140.37 37.1582 140.398 37.1754 140.426 37.195ZM48.2968 63.8812C48.0136 60.6123 48.1744 57.3139 48.131 54.0376C48.1233 53.3485 48.1335 52.6618 48.0723 51.9727C48.057 51.801 48.0392 51.6318 48.0162 51.4626C47.7917 49.8024 46.8504 48.461 44.9296 48.4879C44.0674 48.5002 43.274 48.8215 42.7715 49.5155C42.1337 50.3885 42.3123 51.0825 42.297 52.0218C42.2434 55.1117 42.274 58.1992 42.274 61.2891C42.2715 64.3619 42.3047 67.4346 42.2587 70.505C42.2256 72.8567 43.3735 74.4802 45.603 75.4096C55.8705 79.6938 66.1227 84.0148 76.3596 88.3702C78.3876 89.2334 80.2344 88.8852 82.1527 87.9827C90.8157 83.9069 99.3129 79.4658 108.208 75.8707C113.805 73.6096 115.958 70.218 115.33 64.4109C114.894 60.3695 115.213 56.2545 115.231 52.1983C115.238 51.0457 115.134 49.773 114.096 49.0103C112.937 48.1618 111.499 48.5713 110.315 49.1133C101.866 52.9782 93.2442 56.4923 84.8771 60.524C80.2804 62.7384 76.0407 62.4196 71.7041 59.8545C68.2451 57.8092 65.1406 57.8877 61.7734 60.0556C58.5975 62.1008 55.1307 63.7145 51.7941 65.4949C51.1717 65.8284 49.9268 66.3654 49.21 65.9902C48.5519 65.6469 48.3529 64.5115 48.2968 63.8812Z" fill="black"/>
<path fill-rule="evenodd" clip-rule="evenodd" d="M86.3416 63.3368C94.6882 59.315 103.29 55.8106 111.718 51.9556C111.777 51.9286 111.864 51.8918 111.961 51.8526C111.963 51.985 111.963 52.1076 111.963 52.1836C111.943 56.382 111.624 60.5412 112.078 64.7371C112.555 69.1611 111.188 71.2529 106.943 72.9696C97.9815 76.5917 89.441 81.0524 80.7168 85.1576C79.7015 85.6359 78.7628 85.9522 77.6812 85.4912C67.4392 81.1334 57.1794 76.8099 46.9042 72.5232C45.8889 72.1014 45.514 71.6208 45.5293 70.5491C45.5497 69.1562 45.5548 67.7633 45.5522 66.3679C45.9578 67.3537 46.6211 68.2194 47.6516 68.7565C49.496 69.7202 51.6591 69.166 53.381 68.2464C56.8095 66.417 60.3247 64.7739 63.5898 62.6722C65.8908 61.191 67.628 61.1371 69.9927 62.5349C75.2757 65.6616 80.7627 66.0246 86.3416 63.3368Z" fill="#FFDE59"/>
<path d="M148.737 126.021H13.3773C9.19376 125.986 5.40053 123.308 4.21689 119.419C3.89548 118.35 3.8368 117.673 3.8266 116.569V115.669C3.8266 115.128 3.87252 114.588 3.972 114.053C4.42862 111.741 5.54338 109.919 7.46933 108.408C9.1606 107.077 11.4003 106.449 13.6987 106.449H148.342C150.571 106.449 152.38 106.915 154.28 108.156C156.005 109.291 157.375 111.236 157.941 113.254C158.229 114.267 158.27 114.936 158.27 116.03C158.27 116.356 158.28 116.685 158.27 117.018C158.255 117.754 158.219 118.063 158.069 118.718C157.951 119.228 157.791 119.726 157.589 120.211C157.385 120.697 157.14 121.163 156.857 121.607C156.571 122.053 156.25 122.472 155.893 122.865C155.536 123.257 155.145 123.617 154.724 123.946C154.303 124.277 153.857 124.569 153.385 124.826C152.913 125.082 152.423 125.3 151.913 125.476C151.403 125.653 150.883 125.785 150.35 125.879C149.816 125.969 149.278 126.016 148.737 126.021C146.286 126.045 146.286 129.721 148.737 129.697C149.431 129.689 150.12 129.631 150.806 129.523C151.49 129.412 152.163 129.253 152.821 129.044C153.482 128.836 154.12 128.579 154.74 128.274C155.357 127.97 155.949 127.622 156.51 127.23C157.074 126.837 157.602 126.406 158.097 125.935C158.592 125.464 159.046 124.959 159.459 124.422C159.872 123.882 160.242 123.316 160.563 122.722C160.887 122.131 161.163 121.516 161.39 120.883C162.099 118.882 162.242 116.594 162.015 114.495C161.711 111.751 160.612 109.235 158.734 107.135C156.209 104.315 152.439 102.78 148.612 102.773H13.6655C10.6299 102.773 7.71422 103.631 5.29084 105.419C1.2068 108.45 -0.48192 113.318 0.117549 118.178C0.775689 123.578 4.90054 128.243 10.4794 129.385C11.7217 129.648 12.964 129.697 14.2216 129.697H148.737C151.181 129.697 151.189 126.021 148.737 126.021Z" fill="black"/>
<path d="M149.296 124.402H12.8111C12.454 124.402 12.0994 124.385 11.7448 124.353C11.3902 124.319 11.0382 124.267 10.6887 124.201C10.3392 124.135 9.99486 124.049 9.65304 123.951C9.31121 123.85 8.97704 123.735 8.64797 123.603C8.3189 123.47 7.99748 123.323 7.68117 123.161C7.3674 122.999 7.06384 122.823 6.76538 122.632C6.46948 122.44 6.18377 122.234 5.90827 122.016C5.63277 121.798 5.37003 121.567 5.11748 121.325C4.86494 121.082 4.62515 120.827 4.40067 120.559C4.17364 120.295 3.96191 120.017 3.76294 119.731C3.56652 119.446 3.38285 119.149 3.21449 118.845C3.04613 118.544 2.89307 118.232 2.75787 117.913C2.62012 117.595 2.50023 117.271 2.39564 116.942C2.2936 116.614 2.20687 116.28 2.138 115.942C2.06657 115.603 2.01555 115.262 1.97984 114.922C1.94413 114.578 1.92627 114.235 1.92627 113.889C1.92627 113.546 1.94413 113.202 1.97984 112.859C2.013 112.516 2.06657 112.175 2.13545 111.836C2.20432 111.501 2.29105 111.165 2.39564 110.836C2.49768 110.505 2.61757 110.181 2.75532 109.862C2.89052 109.546 3.04358 109.235 3.21194 108.93C3.3803 108.626 3.56142 108.332 3.76039 108.045C3.95936 107.758 4.17109 107.481 4.39812 107.216C4.6226 106.949 4.86239 106.694 5.11493 106.451C5.36747 106.206 5.63022 105.975 5.90572 105.757C6.18122 105.539 6.46693 105.333 6.76283 105.142C7.06129 104.95 7.36485 104.774 7.68117 104.612C7.99493 104.448 8.31635 104.3 8.64542 104.171C8.97449 104.038 9.31121 103.923 9.65049 103.822C9.99231 103.722 10.3367 103.638 10.6887 103.57C11.0382 103.503 11.3902 103.452 11.7448 103.42C12.0994 103.386 12.454 103.369 12.8111 103.369H149.296C149.653 103.369 150.008 103.386 150.362 103.42C150.717 103.454 151.069 103.506 151.418 103.572C151.768 103.641 152.112 103.724 152.454 103.825C152.793 103.923 153.13 104.041 153.459 104.173C153.788 104.303 154.11 104.45 154.423 104.614C154.737 104.776 155.043 104.953 155.339 105.144C155.635 105.335 155.921 105.541 156.196 105.76C156.472 105.978 156.735 106.208 156.987 106.454C157.24 106.696 157.477 106.951 157.704 107.219C157.931 107.484 158.143 107.761 158.339 108.048C158.538 108.335 158.719 108.629 158.888 108.933C159.056 109.237 159.209 109.548 159.344 109.865C159.482 110.184 159.602 110.507 159.704 110.838C159.808 111.167 159.893 111.501 159.964 111.839C160.033 112.175 160.084 112.516 160.12 112.859C160.155 113.202 160.173 113.546 160.173 113.889C160.173 114.235 160.155 114.578 160.12 114.922C160.084 115.262 160.033 115.603 159.964 115.942C159.893 116.278 159.808 116.611 159.704 116.942C159.599 117.271 159.479 117.595 159.344 117.913C159.209 118.232 159.056 118.541 158.888 118.845C158.719 119.149 158.538 119.444 158.339 119.731C158.14 120.017 157.928 120.292 157.704 120.559C157.477 120.824 157.24 121.079 156.987 121.325C156.735 121.567 156.472 121.798 156.196 122.016C155.921 122.234 155.635 122.44 155.339 122.632C155.043 122.823 154.737 122.999 154.423 123.161C154.11 123.323 153.788 123.47 153.459 123.603C153.13 123.735 152.793 123.85 152.454 123.951C152.112 124.049 151.768 124.135 151.418 124.201C151.069 124.267 150.717 124.319 150.362 124.353C150.008 124.385 149.653 124.402 149.296 124.402Z" fill="white"/>
<path d="M149.296 122.565H18.9048C16.9176 122.565 14.933 122.573 12.9458 122.565C9.96376 122.556 7.08121 121.202 5.44096 118.858C2.82881 115.132 3.48185 110.238 6.98683 107.273C8.53524 105.958 10.6882 105.223 12.8106 105.208H148.492C149.625 105.208 150.571 105.23 151.576 105.492C153.699 106.032 155.609 107.356 156.775 109.078C157.476 110.115 157.805 110.875 158.084 112.077C158.203 112.565 158.265 113.06 158.27 113.563C158.28 113.816 158.27 114.061 158.262 114.316C158.262 114.456 158.254 114.598 158.237 114.74C158.237 114.723 158.168 115.311 158.203 115.083C158.124 115.596 157.999 116.099 157.828 116.592C157.66 117.082 157.446 117.555 157.188 118.012C156.931 118.468 156.632 118.897 156.295 119.301C155.959 119.706 155.589 120.076 155.183 120.417C154.778 120.758 154.344 121.062 153.882 121.327C153.423 121.594 152.941 121.818 152.438 122.001C151.936 122.185 151.421 122.323 150.892 122.418C150.364 122.514 149.831 122.563 149.296 122.565C146.844 122.59 146.844 126.266 149.296 126.242C154.941 126.183 160.027 122.548 161.591 117.271C163.155 111.996 160.849 106.424 156.183 103.484C154.02 102.111 151.477 101.532 148.905 101.532H13.0989C10.0377 101.539 7.17305 102.454 4.77262 104.291C0.489608 107.584 -1.13278 113.514 0.928368 118.424C1.16816 118.992 1.44876 119.544 1.77018 120.074C2.09414 120.604 2.45638 121.109 2.85432 121.587C3.25482 122.065 3.68848 122.512 4.15785 122.928C4.62467 123.345 5.1221 123.728 5.64759 124.074C6.17563 124.419 6.72408 124.726 7.29804 124.993C7.86945 125.261 8.46127 125.486 9.06839 125.67C9.67551 125.854 10.2928 125.994 10.9229 126.089C11.5504 126.185 12.1831 126.237 12.8183 126.242C13.2749 126.249 13.7391 126.242 14.206 126.242H149.296C151.737 126.242 151.747 122.565 149.296 122.565Z" fill="#FFDC4D"/>
<path d="M143.347 113.742L143.151 114.029C143.067 114.169 142.975 114.134 143.245 113.923C143.1 114.029 142.982 114.193 142.847 114.316C142.786 114.358 142.73 114.402 142.679 114.453C142.847 114.208 142.957 114.267 142.796 114.355C142.636 114.446 142.332 114.551 142.215 114.667C142.248 114.642 142.661 114.519 142.365 114.6L142.105 114.681C141.952 114.723 141.773 114.73 141.623 114.779C142.036 114.632 141.952 114.755 141.748 114.755H141.25C140.87 114.747 141.664 114.846 141.317 114.765C141.133 114.723 140.955 114.691 140.768 114.632C140.702 114.598 140.631 114.571 140.557 114.551C140.827 114.551 140.878 114.698 140.641 114.576C140.406 114.453 140.337 114.404 140.194 114.316C139.855 114.11 140.439 114.534 140.261 114.365C140.085 114.193 140.067 114.193 139.975 114.095L139.822 113.938C139.61 113.71 139.916 114.022 139.916 114.053C139.916 113.948 139.687 113.71 139.628 113.595C139.6 113.529 139.567 113.467 139.526 113.408L139.636 113.654L139.559 113.448C139.508 113.286 139.467 113.114 139.424 112.943C139.34 112.582 139.424 113.301 139.442 113.058C139.449 112.974 139.434 112.876 139.434 112.795V112.582C139.434 112.508 139.5 112.182 139.434 112.501C139.365 112.82 139.475 112.305 139.5 112.214C139.526 112.126 139.551 112.045 139.585 111.954C139.73 111.569 139.475 112.141 139.569 111.986C139.661 111.832 139.738 111.684 139.83 111.545C139.924 111.407 140.034 111.187 139.891 111.456C139.745 111.726 139.906 111.447 139.957 111.39C140.008 111.334 140.21 111.177 140.33 111.054C140.447 110.934 139.932 111.299 140.253 111.12L140.541 110.949L140.735 110.851C141.082 110.672 140.304 110.981 140.684 110.875C140.819 110.836 140.962 110.787 141.108 110.753C141.25 110.721 141.335 110.728 141.429 110.696C141.386 110.713 140.937 110.728 141.25 110.721C141.564 110.713 141.656 110.745 141.85 110.728C142.044 110.713 141.36 110.623 141.733 110.713L141.952 110.753C142.087 110.787 142.365 110.934 142.493 110.924C142.442 110.924 142.087 110.721 142.358 110.875L142.61 111.015C142.697 111.059 142.778 111.108 142.855 111.162C143.161 111.349 142.559 110.9 142.829 111.152C142.975 111.275 143.1 111.407 143.227 111.537C143.498 111.824 143 111.177 143.202 111.513C143.253 111.604 143.322 111.692 143.373 111.783L143.472 111.971C143.658 112.288 143.355 111.604 143.447 111.922C143.541 112.239 143.574 112.329 143.625 112.533C143.676 112.739 143.541 112.641 143.6 112.361C143.597 112.469 143.602 112.575 143.618 112.68C143.618 112.771 143.607 112.862 143.607 112.95C143.618 113.359 143.684 112.722 143.633 112.886C143.582 113.048 143.549 113.276 143.482 113.465C143.449 113.534 143.424 113.605 143.406 113.678C143.523 113.408 143.541 113.359 143.457 113.538C143.37 113.717 143.38 113.678 143.347 113.742C142.855 114.583 143.1 115.785 144.023 116.258C144.944 116.731 146.11 116.496 146.625 115.596C147.885 113.416 147.572 110.826 145.916 108.94C144.419 107.233 141.722 106.586 139.569 107.371C137.245 108.212 135.587 110.346 135.631 112.795C135.672 115.245 137.304 117.305 139.654 118.137C142.263 119.061 145.24 117.845 146.625 115.596C147.133 114.772 146.845 113.538 145.942 113.082C145.036 112.624 143.888 112.862 143.347 113.742Z" fill="black"/>
<path d="M144.539 116.528L149.566 119.338C150.429 119.821 151.686 119.559 152.168 118.676C152.651 117.796 152.406 116.675 151.485 116.16L146.457 113.359C145.595 112.876 144.334 113.139 143.852 114.012C143.37 114.887 143.618 116.013 144.539 116.528Z" fill="black"/>
<path d="M162.03 127.335L170.382 124.297L161.686 121.445L152.998 118.595L155.946 127.002L158.895 135.406L162.03 127.335Z" fill="white"/>
<path d="M162.201 127.924L169.509 125.268L170.55 124.893C171.132 124.682 171.167 123.912 170.55 123.708L162.943 121.217L156.716 119.174L153.166 118.007C152.719 117.859 152.237 118.333 152.387 118.759L154.966 126.119L157.079 132.13L158.28 135.56C158.489 136.159 159.285 136.134 159.505 135.56L162.252 128.495L162.64 127.49C162.928 126.757 161.701 126.438 161.423 127.171L158.676 134.239L158.28 135.242H159.505L156.926 127.882L154.813 121.871L153.604 118.441L152.829 119.191L160.433 121.683L166.662 123.725L170.211 124.893V123.708L162.902 126.364L161.862 126.739C161.101 127.016 161.431 128.201 162.201 127.924Z" fill="black"/>
<path d="M19.8143 120.79C19.9903 120.79 20.2071 120.761 20.4546 120.719C20.5566 120.704 20.6867 120.677 20.8321 120.636C20.8448 120.621 20.8882 120.609 20.9903 120.594C21.077 120.579 21.1357 120.567 21.151 120.552C21.253 120.523 21.3397 120.511 21.3831 120.511C21.4265 120.496 21.5132 120.481 21.6433 120.469C21.8754 120.427 22.0514 120.398 22.1662 120.385C22.3269 120.371 22.4723 120.371 22.6024 120.385C22.6177 120.385 22.6892 120.398 22.8193 120.427C22.8499 120.427 22.8779 120.427 22.8932 120.439C23.0233 120.469 23.1381 120.481 23.2121 120.481C23.2835 120.481 23.3575 120.481 23.4136 120.469C23.5463 120.427 23.633 120.341 23.6764 120.231C23.7044 120.148 23.7044 120.064 23.6611 119.981C23.6177 119.91 23.559 119.853 23.4723 119.812C23.3703 119.77 23.2835 119.785 23.1968 119.841C23.1534 119.826 23.1101 119.826 23.0386 119.812C23.0233 119.812 22.9927 119.812 22.98 119.799C22.9647 119.799 22.9494 119.799 22.9366 119.785C22.9213 119.785 22.906 119.785 22.8932 119.785C22.8626 119.77 22.8346 119.77 22.8193 119.77C22.7478 119.758 22.7045 119.743 22.6611 119.743C22.5004 119.728 22.3116 119.728 22.1076 119.743C21.9775 119.758 21.7759 119.785 21.5285 119.826C21.4112 119.841 21.3244 119.853 21.2811 119.868C21.2096 119.883 21.1076 119.895 20.9903 119.924C20.9775 119.937 20.9188 119.951 20.8321 119.966C20.7301 119.993 20.6714 120.008 20.6561 120.008C20.526 120.05 20.4239 120.076 20.3245 120.091C20.1204 120.133 19.9597 120.148 19.8296 120.148C19.7709 120.148 19.7148 120.148 19.6714 120.133C19.6561 120.118 19.6255 120.118 19.6127 120.106V120.091C19.5974 120.076 19.5821 120.05 19.5694 120.023C19.5388 119.937 19.5107 119.826 19.4673 119.701C19.4087 119.422 19.35 119.059 19.2939 118.598C19.2199 117.943 19.1612 117.107 19.1179 116.101C19.35 116.116 19.7148 116.116 20.1918 116.087C20.7581 116.072 21.1663 116.072 21.4418 116.116C21.5285 116.128 21.6152 116.101 21.6867 116.045C21.7606 116.003 21.804 115.935 21.8193 115.836C21.8321 115.753 21.804 115.667 21.7606 115.599C21.702 115.53 21.6305 115.488 21.5285 115.473C21.3244 115.444 21.0923 115.432 20.8321 115.432C20.6714 115.432 20.4546 115.444 20.1484 115.459C19.6714 115.473 19.3066 115.473 19.0898 115.459C19.0898 115.444 19.0898 115.417 19.0898 115.402C19.0464 114.161 19.0311 112.656 19.0311 110.897V110.633C19.0311 110.618 19.0311 110.591 19.0311 110.561C19.0311 110.547 19.0311 110.52 19.0311 110.493C19.0311 110.422 19.0311 110.353 19.0311 110.311C19.0311 110.282 19.0311 110.255 19.0311 110.24C19.0745 110.24 19.1485 110.255 19.2505 110.27C19.2633 110.282 19.2939 110.282 19.3372 110.297C19.5541 110.338 19.6995 110.365 19.7862 110.365C20.1791 110.365 20.7301 110.311 21.4265 110.213C21.4418 110.213 21.4545 110.213 21.4979 110.199C22.0208 110.13 22.4137 110.073 22.6739 110.059C22.7606 110.046 22.8346 110.005 22.906 109.934C22.9647 109.865 22.9927 109.794 22.98 109.696C22.9647 109.612 22.9366 109.544 22.8626 109.487C22.7912 109.431 22.7172 109.404 22.6177 109.419C22.3397 109.431 21.9341 109.487 21.3984 109.571C21.355 109.571 21.3244 109.571 21.3091 109.571C20.6561 109.669 20.1484 109.725 19.7862 109.725C19.7582 109.725 19.6561 109.71 19.4827 109.669C19.452 109.654 19.424 109.654 19.3934 109.642C19.2633 109.612 19.1612 109.6 19.0745 109.6C18.9163 109.585 18.7837 109.612 18.6842 109.654C18.5516 109.71 18.4521 109.823 18.4087 109.99C18.3781 110.073 18.3628 110.172 18.3628 110.297C18.3628 110.353 18.3628 110.436 18.3628 110.534C18.3628 110.591 18.3628 110.618 18.3628 110.633V110.897C18.3628 112.656 18.3781 114.161 18.4215 115.417C18.4648 116.771 18.5388 117.845 18.6255 118.654C18.6842 119.142 18.7556 119.547 18.8296 119.841C18.9163 120.216 19.0311 120.469 19.1918 120.594C19.35 120.719 19.5541 120.775 19.8143 120.79Z" fill="black"/>
<path d="M27.0125 120.511C28.1885 120.189 29.0737 119.422 29.668 118.208C30.191 117.148 30.3951 115.935 30.293 114.581C30.191 113.227 29.8134 112.055 29.1604 111.079C28.4206 109.99 27.4768 109.377 26.3161 109.249C26.186 109.237 26.0967 109.279 26.0253 109.377C25.8952 109.419 25.8212 109.487 25.7932 109.612C25.7064 110.017 25.7064 110.535 25.7779 111.189C25.7932 111.26 25.8085 111.356 25.8212 111.484C25.8646 111.888 25.8952 112.195 25.908 112.388C25.9233 112.837 25.8952 113.507 25.8212 114.385C25.8212 114.426 25.8212 114.441 25.8212 114.456C25.7651 115.167 25.7345 115.724 25.7345 116.101C25.7345 116.589 25.7932 117.161 25.9233 117.845C25.9666 118.053 26.0253 118.348 26.0967 118.723C26.2421 119.395 26.3442 119.883 26.3875 120.175C26.4028 120.246 26.4309 120.314 26.5049 120.371C26.561 120.427 26.635 120.454 26.7064 120.454C26.8084 120.523 26.9105 120.538 27.0125 120.511ZM27.0125 119.841C26.9692 119.603 26.8824 119.184 26.7498 118.598C26.6783 118.223 26.6197 117.928 26.5763 117.735C26.4615 117.092 26.4028 116.548 26.4028 116.101C26.4028 115.738 26.4309 115.209 26.4896 114.497C26.4896 114.483 26.4896 114.468 26.4896 114.441C26.561 113.534 26.5916 112.837 26.5763 112.376C26.561 112.165 26.5329 111.847 26.4896 111.412C26.4743 111.287 26.4615 111.189 26.4462 111.121C26.3875 110.603 26.3748 110.213 26.4182 109.919C27.288 110.073 28.0125 110.576 28.6094 111.442C29.2038 112.32 29.5379 113.379 29.64 114.623C29.7267 115.863 29.5379 116.967 29.0737 117.928C28.5941 118.892 27.913 119.532 27.0125 119.841Z" fill="black"/>
<path d="M34.5564 120.05C34.8319 120.258 35.1074 120.329 35.4135 120.287C35.7171 120.246 35.9952 120.091 36.2553 119.799C36.6176 119.407 36.8931 118.809 37.0538 117.999C37.1839 117.372 37.2579 116.589 37.2706 115.682C37.2859 114.998 37.2706 114.161 37.2119 113.144C37.1992 113.046 37.1839 112.849 37.1686 112.558C37.1558 112.347 37.1558 112.195 37.1405 112.07C37.1252 111.888 37.0818 111.609 36.9951 111.231C36.9798 111.148 36.9671 111.079 36.9518 111.037C36.865 110.645 36.8497 110.353 36.9084 110.142C36.9237 110.059 36.9084 109.975 36.865 109.907C36.8217 109.836 36.7477 109.782 36.6609 109.752C36.5742 109.737 36.4875 109.752 36.4161 109.794C36.3268 109.836 36.2707 109.907 36.2553 109.99C36.212 110.172 36.1967 110.38 36.212 110.603C36.2273 110.758 36.2553 110.951 36.2987 111.175C36.314 111.219 36.3268 111.287 36.3574 111.371C36.4288 111.707 36.4722 111.942 36.4722 112.097C36.4875 112.222 36.4875 112.388 36.5028 112.599L36.5462 113.185C36.5895 114.176 36.6176 115.012 36.6048 115.667C36.5742 117.565 36.2987 118.794 35.763 119.365C35.6023 119.547 35.4416 119.645 35.3115 119.66C35.2095 119.672 35.0794 119.63 34.9493 119.532C34.6432 119.324 34.3549 118.863 34.0488 118.181C33.8014 117.622 33.5692 116.967 33.3804 116.212C33.2223 115.613 33.1356 115.167 33.1203 114.902C33.0488 113.87 33.0055 113.031 33.0182 112.388C33.0335 111.442 33.1356 110.633 33.3243 109.975C33.3524 109.877 33.3371 109.794 33.2937 109.725C33.2504 109.654 33.1789 109.6 33.0922 109.571C33.0055 109.556 32.9162 109.556 32.8448 109.6C32.758 109.642 32.6994 109.711 32.684 109.794C32.4825 110.505 32.3652 111.371 32.3499 112.376C32.3371 113.031 32.3805 113.897 32.4519 114.944C32.4672 115.25 32.5693 115.724 32.7427 116.381C32.9468 117.161 33.1789 117.845 33.4391 118.431C33.7886 119.226 34.1661 119.77 34.5564 120.05Z" fill="black"/>
<path d="M48.2394 120.371C48.747 120.3 49.0812 119.993 49.2419 119.463C49.5174 118.529 49.4587 117.467 49.0659 116.283C48.747 115.348 48.2547 114.412 47.5863 113.477C47.5277 113.409 47.4563 113.311 47.3695 113.198C47.3542 113.185 47.3108 113.129 47.2522 113.046C47.1935 112.975 47.1654 112.933 47.1501 112.921C46.7445 112.418 46.5124 112.013 46.469 111.719C46.3976 111.4 46.441 111.064 46.5991 110.728C46.7598 110.395 46.9614 110.157 47.2241 110.017C47.4716 109.892 47.7037 109.892 47.9358 110.017C48.2547 110.186 48.5302 110.561 48.7623 111.148C48.7904 111.231 48.8491 111.287 48.9358 111.329C49.0225 111.371 49.1118 111.371 49.1985 111.329C49.2853 111.302 49.3439 111.246 49.3873 111.162C49.4154 111.091 49.4154 111.008 49.3873 110.924C49.0965 110.186 48.719 109.696 48.2547 109.46C47.8032 109.223 47.3542 109.223 46.9053 109.46C46.5124 109.669 46.2216 109.99 46.0048 110.451C45.7879 110.91 45.7293 111.371 45.8007 111.832C45.8441 112.082 45.9614 112.347 46.1196 112.626C46.2369 112.808 46.3976 113.046 46.6144 113.311C46.6298 113.325 46.6578 113.367 46.7292 113.436C46.7879 113.519 46.8185 113.575 46.8313 113.59C46.918 113.688 46.992 113.772 47.0353 113.84C47.6603 114.721 48.1246 115.599 48.4282 116.477C48.7776 117.538 48.8338 118.473 48.6016 119.297C48.5302 119.562 48.3695 119.701 48.1374 119.743C47.8925 119.785 47.6144 119.714 47.2828 119.532C46.9486 119.353 46.7012 119.142 46.5277 118.877C46.367 118.639 46.3389 118.446 46.4257 118.277C46.469 118.208 46.469 118.124 46.441 118.041C46.4104 117.958 46.3543 117.887 46.2803 117.845C46.1935 117.803 46.1068 117.803 46.0201 117.83C45.9333 117.86 45.8747 117.916 45.8313 117.999C45.6272 118.375 45.6706 118.779 45.9614 119.213C46.1935 119.562 46.5277 119.853 46.9614 120.091C47.4129 120.329 47.8491 120.427 48.2394 120.371Z" fill="black"/>
<path d="M51.9829 120.927C52.0849 120.942 52.1869 120.927 52.2864 120.915C52.6359 120.859 52.9854 120.832 53.3323 120.817C53.4624 120.817 53.6665 120.817 53.942 120.817C54.1308 120.817 54.2762 120.817 54.3909 120.817C54.4802 120.817 54.5517 120.79 54.6231 120.734C54.6971 120.663 54.7251 120.594 54.7251 120.511C54.7251 120.412 54.6971 120.341 54.6231 120.273C54.5517 120.204 54.4802 120.175 54.3909 120.175C54.2915 120.175 54.1461 120.175 53.9573 120.175C53.6665 120.175 53.4497 120.175 53.317 120.175C52.9267 120.189 52.5492 120.216 52.1563 120.287H52.1436C52.1436 120.273 52.1436 120.246 52.1283 120.204C52.113 120.05 52.113 119.826 52.113 119.532C52.1002 119.017 52.1002 118.333 52.113 117.482C52.113 116.994 52.1283 116.491 52.1436 115.976C52.3451 115.988 52.664 115.988 53.1155 115.976C53.3757 115.962 53.5644 115.962 53.6945 115.962C53.7813 115.962 53.8553 115.935 53.9267 115.863C53.9854 115.807 54.016 115.738 54.016 115.64C54.016 115.542 53.9854 115.473 53.9267 115.402C53.8553 115.348 53.7813 115.319 53.6945 115.319C53.5644 115.319 53.3604 115.319 53.1002 115.334C52.664 115.348 52.3451 115.348 52.1563 115.334C52.1716 114.691 52.1869 114.301 52.1997 114.176C52.215 114.078 52.2303 113.799 52.2431 113.367V113.254C52.2584 113.185 52.2584 113.087 52.2737 112.975C52.2737 112.864 52.2737 112.751 52.2864 112.626C52.2864 112.516 52.2864 112.403 52.3017 112.293C52.3017 112.18 52.3017 112.097 52.3017 112.028C52.3323 111.4 52.3604 110.924 52.3885 110.591C52.4038 110.38 52.4191 110.228 52.4318 110.115V110.1C52.4905 110.088 52.5645 110.088 52.6359 110.073C52.8247 110.059 53.0849 110.046 53.419 110.046C53.5058 110.046 53.6384 110.046 53.8119 110.046C54.2022 110.046 54.4496 110.046 54.567 110.032C54.669 110.017 54.7404 109.99 54.7991 109.919C54.8578 109.85 54.8858 109.782 54.8858 109.684C54.8705 109.6 54.8425 109.529 54.7685 109.46C54.6971 109.404 54.6103 109.377 54.5236 109.389C54.4216 109.404 54.1741 109.404 53.8119 109.404C53.6231 109.404 53.493 109.404 53.419 109.404C53.0568 109.404 52.7813 109.419 52.5925 109.431C52.4624 109.446 52.3451 109.46 52.2431 109.473C52.113 109.502 52.0109 109.544 51.9395 109.612C51.8961 109.654 51.8528 109.696 51.8222 109.752C51.8094 109.782 51.8094 109.809 51.7941 109.85C51.7788 109.892 51.7788 109.961 51.766 110.032C51.7507 110.157 51.7354 110.324 51.7227 110.535C51.6921 110.883 51.664 111.371 51.6334 111.999C51.6334 112.04 51.6334 112.097 51.6334 112.165C51.6206 112.236 51.6206 112.32 51.6206 112.403C51.6206 112.487 51.6206 112.57 51.6206 112.656C51.6053 112.751 51.6053 112.837 51.6053 112.906C51.59 112.989 51.59 113.06 51.59 113.114C51.59 113.185 51.59 113.242 51.5773 113.284V113.338C51.562 113.772 51.562 114.022 51.5467 114.105C51.5033 114.497 51.4599 115.613 51.4446 117.467C51.4319 118.321 51.4319 119.017 51.4446 119.547C51.4446 119.841 51.4446 120.077 51.4599 120.258C51.4752 120.356 51.4752 120.427 51.4905 120.496C51.5033 120.609 51.5467 120.692 51.6053 120.746C51.7074 120.844 51.8222 120.915 51.9829 120.927Z" fill="black"/>
<path d="M57.5831 120.329C58.004 118.627 58.3102 117.384 58.4989 116.589C58.527 116.435 58.555 116.268 58.5984 116.116C59.2514 116.072 59.8331 116.087 60.3279 116.143C60.4861 117.021 60.6162 117.735 60.7182 118.264C60.7488 118.389 60.7616 118.627 60.7769 118.975C60.7769 119.044 60.7769 119.086 60.7922 119.115C60.805 119.353 60.8203 119.547 60.8356 119.701C60.8636 119.925 60.9223 120.118 60.9937 120.273C61.0243 120.341 61.0805 120.398 61.1697 120.427C61.2565 120.469 61.3432 120.469 61.4299 120.427C61.5167 120.398 61.5753 120.341 61.6187 120.258C61.6468 120.175 61.6468 120.091 61.6034 120.008C61.532 119.826 61.4733 119.52 61.458 119.086C61.4452 119.044 61.4452 119.002 61.4452 118.948C61.4299 118.571 61.4019 118.306 61.3713 118.139C61.2565 117.58 61.0958 116.744 60.907 115.626C60.8917 115.501 60.8789 115.402 60.8636 115.348C60.6749 114.328 60.5295 113.534 60.4147 112.948C60.2387 112.07 60.0499 111.287 59.8611 110.576C59.7616 110.142 59.6596 109.865 59.5729 109.711C59.5422 109.654 59.5142 109.612 59.4861 109.571C59.4275 109.502 59.3535 109.46 59.2667 109.446C59.1367 109.404 59.0193 109.431 58.9198 109.529C58.8765 109.571 58.8458 109.627 58.8178 109.696C58.7744 109.794 58.7438 109.975 58.7311 110.24C58.7157 110.395 58.7157 110.645 58.7004 110.966C58.7004 110.981 58.7004 111.023 58.7004 111.079C58.7004 111.552 58.6877 111.859 58.6724 111.984C58.4683 113.421 58.1928 114.914 57.8459 116.464C57.6571 117.244 57.351 118.487 56.9301 120.175C56.9148 120.273 56.9301 120.356 56.9735 120.427C57.0168 120.496 57.0908 120.552 57.1775 120.567C57.2643 120.579 57.351 120.579 57.4377 120.538C57.5117 120.496 57.5704 120.427 57.5831 120.329ZM60.2106 115.488C59.7616 115.444 59.2821 115.432 58.7438 115.459C58.9759 114.328 59.1647 113.198 59.3254 112.07C59.3407 111.93 59.3535 111.677 59.3688 111.314C59.4989 111.847 59.629 112.433 59.7616 113.073C59.8764 113.647 60.0218 114.441 60.1953 115.444C60.2106 115.459 60.2106 115.474 60.2106 115.488Z" fill="black"/>
<path d="M64.7507 120.386C64.7813 120.386 64.8094 120.386 64.8375 120.371C64.9982 120.329 65.0849 120.216 65.0849 120.064C65.0849 120.05 65.0849 120.05 65.0849 120.035C65.1002 120.023 65.1002 119.993 65.1002 119.981C65.113 119.91 65.1002 119.841 65.0568 119.785C65.0415 119.77 65.0415 119.743 65.0262 119.701C64.9114 119.002 64.7813 117.762 64.6359 115.962C64.7507 115.92 64.8681 115.849 64.9829 115.78C65.215 116.393 65.5058 117.107 65.8553 117.901C66.1002 118.473 66.3042 118.948 66.493 119.309C66.7252 119.785 66.8986 120.077 67.0287 120.175C67.1027 120.231 67.1741 120.258 67.2762 120.246C67.3629 120.246 67.4369 120.204 67.5083 120.133C67.567 120.064 67.595 119.993 67.5823 119.895C67.567 119.812 67.5389 119.743 67.4649 119.687L67.4369 119.645C67.4062 119.603 67.3782 119.562 67.3501 119.505C67.2762 119.395 67.1894 119.24 67.0874 119.032C66.9139 118.681 66.7098 118.223 66.465 117.663C66.0441 116.702 65.7379 115.935 65.5492 115.39C65.84 115.167 66.1155 114.914 66.3629 114.635C67.016 113.911 67.3629 113.254 67.4216 112.668C67.4649 112.278 67.3935 111.874 67.2328 111.454C67.0593 111.05 66.7966 110.674 66.465 110.324C65.8119 109.642 65.1002 109.306 64.3298 109.291C64.2712 109.196 64.1844 109.151 64.0824 109.139C63.9957 109.124 63.9242 109.151 63.8503 109.196C63.7788 109.25 63.7202 109.321 63.7074 109.404C63.6054 110.115 63.6615 111.999 63.8962 115.039C64.0543 117.077 64.1997 118.598 64.3298 119.589C64.3298 119.603 64.3298 119.63 64.3171 119.645C64.3171 119.701 64.3604 119.868 64.4319 120.148C64.4752 120.3 64.5926 120.386 64.7507 120.386ZM64.5773 115.263C64.5773 115.167 64.5773 115.084 64.562 114.986C64.3732 112.57 64.3018 110.897 64.3451 109.934C64.9114 109.948 65.4624 110.213 65.9854 110.758C66.2456 111.037 66.4496 111.344 66.5951 111.665C66.7252 111.999 66.7838 112.32 66.7532 112.612C66.7098 113.06 66.419 113.59 65.8553 114.203C65.4344 114.664 65.0135 115.027 64.5773 115.263Z" fill="black"/>
<path d="M72.733 120.579C73.1539 120.371 73.5595 119.91 73.9217 119.172C74.0238 118.99 74.0824 118.767 74.1105 118.529C74.1258 118.431 74.1258 118.306 74.1411 118.124C74.1539 117.83 74.1972 117.607 74.2406 117.467C74.2712 117.384 74.2712 117.301 74.2278 117.217C74.1845 117.148 74.1105 117.092 74.0238 117.063C73.937 117.036 73.8503 117.036 73.7763 117.077C73.6896 117.119 73.6309 117.19 73.6029 117.274C73.5595 117.399 73.5314 117.553 73.5161 117.705C73.5008 117.789 73.4881 117.916 73.4728 118.095C73.4575 118.25 73.4575 118.375 73.4447 118.446C73.4294 118.627 73.386 118.767 73.3121 118.892C73.0085 119.49 72.7177 119.868 72.4269 119.993C72.2381 120.091 72.0494 120.05 71.8325 119.883C71.5851 119.672 71.3402 119.309 71.1208 118.794C70.8887 118.277 70.6999 117.663 70.5545 116.952C70.2356 115.402 70.177 113.965 70.3964 112.612C70.6412 111.148 71.1361 110.24 71.904 109.907C72.1233 109.809 72.3121 109.823 72.4422 109.934C72.6029 110.059 72.7024 110.282 72.7764 110.576C72.7891 110.66 72.8478 110.728 72.9218 110.77C72.9932 110.814 73.0799 110.826 73.182 110.814C73.2687 110.799 73.3427 110.743 73.386 110.674C73.4294 110.603 73.4447 110.52 73.4294 110.436C73.3274 110.005 73.1539 109.669 72.8912 109.46C72.5289 109.166 72.108 109.11 71.6285 109.321C70.6412 109.752 70.0188 110.826 69.7433 112.516C69.5239 113.938 69.5673 115.459 69.9015 117.077C70.2356 118.738 70.7433 119.826 71.4116 120.371C71.8325 120.719 72.2815 120.79 72.733 120.579Z" fill="black"/>
<path d="M76.8948 120.386C76.9687 120.356 77.0402 120.3 77.0835 120.231C77.1141 120.189 77.1422 120.118 77.1575 120.023C77.2009 119.853 77.1269 119.728 76.9687 119.66C76.9534 119.547 76.9407 119.478 76.9407 119.436C76.9534 119.297 76.9687 119.086 76.9968 118.809C77.0121 118.544 77.0274 118.375 77.0274 118.321C77.0708 117.678 77.0988 117.148 77.1141 116.714C77.1269 116.521 77.1269 116.324 77.1269 116.128C78.5223 115.989 79.7697 115.962 80.8717 116.06C80.8589 116.116 80.8589 116.185 80.8589 116.253C80.7849 117.119 80.7416 117.762 80.7135 118.193C80.6701 118.919 80.6548 119.562 80.6548 120.133C80.6548 120.216 80.6829 120.287 80.7569 120.356C80.8283 120.427 80.9023 120.454 81.0043 120.454C81.0911 120.454 81.1625 120.427 81.2365 120.356C81.2926 120.287 81.3232 120.216 81.3232 120.133C81.3232 119.576 81.3359 118.948 81.3793 118.235C81.4099 117.803 81.4533 117.161 81.5247 116.298C81.5247 116.241 81.5247 116.185 81.5247 116.128C81.6267 116.143 81.7007 116.116 81.7721 116.06C81.8461 116.018 81.8742 115.947 81.8895 115.863C81.9022 115.765 81.8742 115.682 81.8308 115.613C81.7721 115.542 81.7007 115.515 81.614 115.5C81.5987 115.5 81.5987 115.5 81.5834 115.488C81.5987 115.39 81.5987 115.277 81.5987 115.167C81.6854 113.995 81.7288 113.016 81.7135 112.222C81.7007 111.148 81.6267 110.172 81.4813 109.291C81.4686 109.208 81.4252 109.139 81.3512 109.083C81.2798 109.041 81.1931 109.014 81.1038 109.026C81.0043 109.041 80.9303 109.097 80.887 109.166C80.8283 109.237 80.8002 109.321 80.8155 109.404C80.961 110.255 81.0324 111.189 81.0477 112.222C81.0604 113.004 81.0171 113.965 80.9303 115.125C80.9303 115.221 80.9303 115.319 80.915 115.417C79.7977 115.319 78.535 115.348 77.1269 115.488C77.1269 115.307 77.1269 115.069 77.1269 114.775C77.1269 114.176 77.1269 113.73 77.1269 113.436C77.1422 111.832 77.2876 110.547 77.5478 109.612C77.5784 109.514 77.5631 109.431 77.5197 109.362C77.4764 109.291 77.405 109.237 77.3157 109.208C77.2289 109.196 77.1422 109.196 77.0708 109.237C76.9841 109.279 76.9254 109.348 76.9101 109.446C76.6346 110.436 76.4739 111.775 76.4611 113.436C76.4611 113.73 76.4611 114.189 76.4611 114.789C76.4739 115.64 76.4611 116.283 76.4458 116.687C76.4305 117.107 76.4024 117.636 76.3591 118.277C76.3438 118.375 76.3438 118.544 76.331 118.767C76.3157 119.044 76.3004 119.255 76.2851 119.395C76.2723 119.547 76.2851 119.743 76.3591 119.993C76.3744 120.05 76.3871 120.106 76.4024 120.148C76.4458 120.246 76.4892 120.314 76.5631 120.356C76.6626 120.427 76.78 120.427 76.8948 120.386Z" fill="black"/>
</svg>
