<svg width="43" height="60" viewBox="0 0 43 60" fill="none" xmlns="http://www.w3.org/2000/svg">
<path d="M18.4286 0C15.05 0 12.2857 3.375 12.2857 7.5H6.14286C2.76429 7.5 0 10.875 0 15H43C43 10.875 40.2357 7.5 36.8571 7.5H30.7143C30.7143 3.375 27.95 0 24.5714 0H18.4286ZM6.14286 22.5V58.575C6.14286 59.4 6.63429 60 7.31 60H35.7514C36.4271 60 36.9186 59.4 36.9186 58.575V22.5H30.7757V48.75C30.7757 50.85 29.4243 52.5 27.7043 52.5C25.9843 52.5 24.6329 50.85 24.6329 48.75V22.5H18.49V48.75C18.49 50.85 17.1386 52.5 15.4186 52.5C13.6986 52.5 12.3471 50.85 12.3471 48.75V22.5H6.20429H6.14286Z" fill="black" fill-opacity="0.6"/>
</svg>
